<svg width="276" height="328" viewBox="0 0 276 328" fill="none" xmlns="http://www.w3.org/2000/svg">
<path d="M276 3C276 1.34315 274.657 0 273 0C271.343 0 270 1.34315 270 3C270 4.65685 271.343 6 273 6C274.657 6 276 4.65685 276 3Z" fill="#EA4292"/>
<path d="M92 3C92 1.34315 90.6569 0 89 0C87.3431 0 86 1.34315 86 3C86 4.65685 87.3431 6 89 6C90.6569 6 92 4.65685 92 3Z" fill="#EA4292"/>
<path d="M230 3C230 1.34315 228.657 0 227 0C225.343 0 224 1.34315 224 3C224 4.65685 225.343 6 227 6C228.657 6 230 4.65685 230 3Z" fill="#FFBF44"/>
<path d="M46 3C46 1.34315 44.6569 0 43 0C41.3431 0 40 1.34315 40 3C40 4.65685 41.3431 6 43 6C44.6569 6 46 4.65685 46 3Z" fill="#FFBF44"/>
<path d="M184 3C184 1.34315 182.657 0 181 0C179.343 0 178 1.34315 178 3C178 4.65685 179.343 6 181 6C182.657 6 184 4.65685 184 3Z" fill="#FF702A"/>
<path d="M138 3C138 1.34315 136.657 0 135 0C133.343 0 132 1.34315 132 3C132 4.65685 133.343 6 135 6C136.657 6 138 4.65685 138 3Z" fill="#6B5BF6"/>
<path d="M92 95C92 93.3431 90.6569 92 89 92C87.3431 92 86 93.3431 86 95C86 96.6569 87.3431 98 89 98C90.6569 98 92 96.6569 92 95Z" fill="#EA4292"/>
<path d="M46 95C46 93.3431 44.6569 92 43 92C41.3431 92 40 93.3431 40 95C40 96.6569 41.3431 98 43 98C44.6569 98 46 96.6569 46 95Z" fill="#FFBF44"/>
<path d="M184 95C184 93.3431 182.657 92 181 92C179.343 92 178 93.3431 178 95C178 96.6569 179.343 98 181 98C182.657 98 184 96.6569 184 95Z" fill="#FF702A"/>
<path d="M138 95C138 93.3431 136.657 92 135 92C133.343 92 132 93.3431 132 95C132 96.6569 133.343 98 135 98C136.657 98 138 96.6569 138 95Z" fill="#6B5BF6"/>
<path d="M92 187C92 185.343 90.6569 184 89 184C87.3431 184 86 185.343 86 187C86 188.657 87.3431 190 89 190C90.6569 190 92 188.657 92 187Z" fill="#EA4292"/>
<path d="M46 187C46 185.343 44.6569 184 43 184C41.3431 184 40 185.343 40 187C40 188.657 41.3431 190 43 190C44.6569 190 46 188.657 46 187Z" fill="#FFBF44"/>
<path d="M92 49C92 47.3431 90.6569 46 89 46C87.3431 46 86 47.3431 86 49C86 50.6569 87.3431 52 89 52C90.6569 52 92 50.6569 92 49Z" fill="#0AB493"/>
<path d="M230 49C230 47.3431 228.657 46 227 46C225.343 46 224 47.3431 224 49C224 50.6569 225.343 52 227 52C228.657 52 230 50.6569 230 49Z" fill="#6B5BF6"/>
<path d="M46 49C46 47.3431 44.6569 46 43 46C41.3431 46 40 47.3431 40 49C40 50.6569 41.3431 52 43 52C44.6569 52 46 50.6569 46 49Z" fill="#6B5BF6"/>
<path d="M138 49C138 47.3431 136.657 46 135 46C133.343 46 132 47.3431 132 49C132 50.6569 133.343 52 135 52C136.657 52 138 50.6569 138 49Z" fill="#FFBF44"/>
<path d="M184 49C184 47.3431 182.657 46 181 46C179.343 46 178 47.3431 178 49C178 50.6569 179.343 52 181 52C182.657 52 184 50.6569 184 49Z" fill="#1A5AFE"/>
<path d="M92 141C92 139.343 90.6569 138 89 138C87.3431 138 86 139.343 86 141C86 142.657 87.3431 144 89 144C90.6569 144 92 142.657 92 141Z" fill="#0AB493"/>
<path d="M46 141C46 139.343 44.6569 138 43 138C41.3431 138 40 139.343 40 141C40 142.657 41.3431 144 43 144C44.6569 144 46 142.657 46 141Z" fill="#6B5BF6"/>
<path d="M138 141C138 139.343 136.657 138 135 138C133.343 138 132 139.343 132 141C132 142.657 133.343 144 135 144C136.657 144 138 142.657 138 141Z" fill="#FFBF44"/>
<path d="M46 233C46 231.343 44.6569 230 43 230C41.3431 230 40 231.343 40 233C40 234.657 41.3431 236 43 236C44.6569 236 46 234.657 46 233Z" fill="#6B5BF6"/>
</svg>
