<svg width="274" height="880" viewBox="0 0 274 880" fill="none" xmlns="http://www.w3.org/2000/svg">
<path d="M274 3C274 1.34315 272.657 0 271 0C269.343 0 268 1.34315 268 3C268 4.65685 269.343 6 271 6C272.657 6 274 4.65685 274 3Z" fill="#EA4292"/>
<path d="M90 3C90 1.34315 88.6569 0 87 0C85.3431 0 84 1.34315 84 3C84 4.65685 85.3431 6 87 6C88.6569 6 90 4.65685 90 3Z" fill="#EA4292"/>
<path d="M228 3C228 1.34315 226.657 0 225 0C223.343 0 222 1.34315 222 3C222 4.65685 223.343 6 225 6C226.657 6 228 4.65685 228 3Z" fill="#FFBF44"/>
<path d="M44 3C44 1.34315 42.6569 0 41 0C39.3431 0 38 1.34315 38 3C38 4.65685 39.3431 6 41 6C42.6569 6 44 4.65685 44 3Z" fill="#FFBF44"/>
<path d="M182 3C182 1.34315 180.657 0 179 0C177.343 0 176 1.34315 176 3C176 4.65685 177.343 6 179 6C180.657 6 182 4.65685 182 3Z" fill="#FF702A"/>
<path d="M136 3C136 1.34315 134.657 0 133 0C131.343 0 130 1.34315 130 3C130 4.65685 131.343 6 133 6C134.657 6 136 4.65685 136 3Z" fill="#6B5BF6"/>
<path d="M274 95C274 93.3431 272.657 92 271 92C269.343 92 268 93.3431 268 95C268 96.6569 269.343 98 271 98C272.657 98 274 96.6569 274 95Z" fill="#EA4292"/>
<path d="M90 95C90 93.3431 88.6569 92 87 92C85.3431 92 84 93.3431 84 95C84 96.6569 85.3431 98 87 98C88.6569 98 90 96.6569 90 95Z" fill="#EA4292"/>
<path d="M228 95C228 93.3431 226.657 92 225 92C223.343 92 222 93.3431 222 95C222 96.6569 223.343 98 225 98C226.657 98 228 96.6569 228 95Z" fill="#FFBF44"/>
<path d="M44 95C44 93.3431 42.6569 92 41 92C39.3431 92 38 93.3431 38 95C38 96.6569 39.3431 98 41 98C42.6569 98 44 96.6569 44 95Z" fill="#FFBF44"/>
<path d="M182 95C182 93.3431 180.657 92 179 92C177.343 92 176 93.3431 176 95C176 96.6569 177.343 98 179 98C180.657 98 182 96.6569 182 95Z" fill="#FF702A"/>
<path d="M136 95C136 93.3431 134.657 92 133 92C131.343 92 130 93.3431 130 95C130 96.6569 131.343 98 133 98C134.657 98 136 96.6569 136 95Z" fill="#6B5BF6"/>
<path d="M274 187C274 185.343 272.657 184 271 184C269.343 184 268 185.343 268 187C268 188.657 269.343 190 271 190C272.657 190 274 188.657 274 187Z" fill="#EA4292"/>
<path d="M90 187C90 185.343 88.6569 184 87 184C85.3431 184 84 185.343 84 187C84 188.657 85.3431 190 87 190C88.6569 190 90 188.657 90 187Z" fill="#EA4292"/>
<path d="M228 187C228 185.343 226.657 184 225 184C223.343 184 222 185.343 222 187C222 188.657 223.343 190 225 190C226.657 190 228 188.657 228 187Z" fill="#FFBF44"/>
<path d="M44 187C44 185.343 42.6569 184 41 184C39.3431 184 38 185.343 38 187C38 188.657 39.3431 190 41 190C42.6569 190 44 188.657 44 187Z" fill="#FFBF44"/>
<path d="M182 187C182 185.343 180.657 184 179 184C177.343 184 176 185.343 176 187C176 188.657 177.343 190 179 190C180.657 190 182 188.657 182 187Z" fill="#FF702A"/>
<path d="M136 187C136 185.343 134.657 184 133 184C131.343 184 130 185.343 130 187C130 188.657 131.343 190 133 190C134.657 190 136 188.657 136 187Z" fill="#6B5BF6"/>
<path d="M274 279C274 277.343 272.657 276 271 276C269.343 276 268 277.343 268 279C268 280.657 269.343 282 271 282C272.657 282 274 280.657 274 279Z" fill="#EA4292"/>
<path d="M90 279C90 277.343 88.6569 276 87 276C85.3431 276 84 277.343 84 279C84 280.657 85.3431 282 87 282C88.6569 282 90 280.657 90 279Z" fill="#EA4292"/>
<path d="M228 279C228 277.343 226.657 276 225 276C223.343 276 222 277.343 222 279C222 280.657 223.343 282 225 282C226.657 282 228 280.657 228 279Z" fill="#FFBF44"/>
<path d="M44 279C44 277.343 42.6569 276 41 276C39.3431 276 38 277.343 38 279C38 280.657 39.3431 282 41 282C42.6569 282 44 280.657 44 279Z" fill="#FFBF44"/>
<path d="M182 279C182 277.343 180.657 276 179 276C177.343 276 176 277.343 176 279C176 280.657 177.343 282 179 282C180.657 282 182 280.657 182 279Z" fill="#FF702A"/>
<path d="M136 279C136 277.343 134.657 276 133 276C131.343 276 130 277.343 130 279C130 280.657 131.343 282 133 282C134.657 282 136 280.657 136 279Z" fill="#6B5BF6"/>
<path d="M274 371C274 369.343 272.657 368 271 368C269.343 368 268 369.343 268 371C268 372.657 269.343 374 271 374C272.657 374 274 372.657 274 371Z" fill="#EA4292"/>
<path d="M90 371C90 369.343 88.6569 368 87 368C85.3431 368 84 369.343 84 371C84 372.657 85.3431 374 87 374C88.6569 374 90 372.657 90 371Z" fill="#EA4292"/>
<path d="M228 371C228 369.343 226.657 368 225 368C223.343 368 222 369.343 222 371C222 372.657 223.343 374 225 374C226.657 374 228 372.657 228 371Z" fill="#FFBF44"/>
<path d="M44 371C44 369.343 42.6569 368 41 368C39.3431 368 38 369.343 38 371C38 372.657 39.3431 374 41 374C42.6569 374 44 372.657 44 371Z" fill="#FFBF44"/>
<path d="M182 371C182 369.343 180.657 368 179 368C177.343 368 176 369.343 176 371C176 372.657 177.343 374 179 374C180.657 374 182 372.657 182 371Z" fill="#FF702A"/>
<path d="M136 371C136 369.343 134.657 368 133 368C131.343 368 130 369.343 130 371C130 372.657 131.343 374 133 374C134.657 374 136 372.657 136 371Z" fill="#6B5BF6"/>
<path d="M274 463C274 461.343 272.657 460 271 460C269.343 460 268 461.343 268 463C268 464.657 269.343 466 271 466C272.657 466 274 464.657 274 463Z" fill="#EA4292"/>
<path d="M90 463C90 461.343 88.6569 460 87 460C85.3431 460 84 461.343 84 463C84 464.657 85.3431 466 87 466C88.6569 466 90 464.657 90 463Z" fill="#EA4292"/>
<path d="M228 463C228 461.343 226.657 460 225 460C223.343 460 222 461.343 222 463C222 464.657 223.343 466 225 466C226.657 466 228 464.657 228 463Z" fill="#FFBF44"/>
<path d="M44 463C44 461.343 42.6569 460 41 460C39.3431 460 38 461.343 38 463C38 464.657 39.3431 466 41 466C42.6569 466 44 464.657 44 463Z" fill="#FFBF44"/>
<path d="M182 463C182 461.343 180.657 460 179 460C177.343 460 176 461.343 176 463C176 464.657 177.343 466 179 466C180.657 466 182 464.657 182 463Z" fill="#FF702A"/>
<path d="M136 463C136 461.343 134.657 460 133 460C131.343 460 130 461.343 130 463C130 464.657 131.343 466 133 466C134.657 466 136 464.657 136 463Z" fill="#6B5BF6"/>
<path d="M274 555C274 553.343 272.657 552 271 552C269.343 552 268 553.343 268 555C268 556.657 269.343 558 271 558C272.657 558 274 556.657 274 555Z" fill="#EA4292"/>
<path d="M90 555C90 553.343 88.6569 552 87 552C85.3431 552 84 553.343 84 555C84 556.657 85.3431 558 87 558C88.6569 558 90 556.657 90 555Z" fill="#EA4292"/>
<path d="M228 555C228 553.343 226.657 552 225 552C223.343 552 222 553.343 222 555C222 556.657 223.343 558 225 558C226.657 558 228 556.657 228 555Z" fill="#FFBF44"/>
<path d="M44 555C44 553.343 42.6569 552 41 552C39.3431 552 38 553.343 38 555C38 556.657 39.3431 558 41 558C42.6569 558 44 556.657 44 555Z" fill="#FFBF44"/>
<path d="M182 555C182 553.343 180.657 552 179 552C177.343 552 176 553.343 176 555C176 556.657 177.343 558 179 558C180.657 558 182 556.657 182 555Z" fill="#FF702A"/>
<path d="M136 555C136 553.343 134.657 552 133 552C131.343 552 130 553.343 130 555C130 556.657 131.343 558 133 558C134.657 558 136 556.657 136 555Z" fill="#6B5BF6"/>
<path d="M274 647C274 645.343 272.657 644 271 644C269.343 644 268 645.343 268 647C268 648.657 269.343 650 271 650C272.657 650 274 648.657 274 647Z" fill="#EA4292"/>
<path d="M90 647C90 645.343 88.6569 644 87 644C85.3431 644 84 645.343 84 647C84 648.657 85.3431 650 87 650C88.6569 650 90 648.657 90 647Z" fill="#EA4292"/>
<path d="M228 647C228 645.343 226.657 644 225 644C223.343 644 222 645.343 222 647C222 648.657 223.343 650 225 650C226.657 650 228 648.657 228 647Z" fill="#FFBF44"/>
<path d="M44 647C44 645.343 42.6569 644 41 644C39.3431 644 38 645.343 38 647C38 648.657 39.3431 650 41 650C42.6569 650 44 648.657 44 647Z" fill="#FFBF44"/>
<path d="M182 647C182 645.343 180.657 644 179 644C177.343 644 176 645.343 176 647C176 648.657 177.343 650 179 650C180.657 650 182 648.657 182 647Z" fill="#FF702A"/>
<path d="M136 647C136 645.343 134.657 644 133 644C131.343 644 130 645.343 130 647C130 648.657 131.343 650 133 650C134.657 650 136 648.657 136 647Z" fill="#6B5BF6"/>
<path d="M274 739C274 737.343 272.657 736 271 736C269.343 736 268 737.343 268 739C268 740.657 269.343 742 271 742C272.657 742 274 740.657 274 739Z" fill="#EA4292"/>
<path d="M90 739C90 737.343 88.6569 736 87 736C85.3431 736 84 737.343 84 739C84 740.657 85.3431 742 87 742C88.6569 742 90 740.657 90 739Z" fill="#EA4292"/>
<path d="M228 739C228 737.343 226.657 736 225 736C223.343 736 222 737.343 222 739C222 740.657 223.343 742 225 742C226.657 742 228 740.657 228 739Z" fill="#FFBF44"/>
<path d="M44 739C44 737.343 42.6569 736 41 736C39.3431 736 38 737.343 38 739C38 740.657 39.3431 742 41 742C42.6569 742 44 740.657 44 739Z" fill="#FFBF44"/>
<path d="M182 739C182 737.343 180.657 736 179 736C177.343 736 176 737.343 176 739C176 740.657 177.343 742 179 742C180.657 742 182 740.657 182 739Z" fill="#FF702A"/>
<path d="M136 739C136 737.343 134.657 736 133 736C131.343 736 130 737.343 130 739C130 740.657 131.343 742 133 742C134.657 742 136 740.657 136 739Z" fill="#6B5BF6"/>
<path d="M274 831C274 829.343 272.657 828 271 828C269.343 828 268 829.343 268 831C268 832.657 269.343 834 271 834C272.657 834 274 832.657 274 831Z" fill="#EA4292"/>
<path d="M90 831C90 829.343 88.6569 828 87 828C85.3431 828 84 829.343 84 831C84 832.657 85.3431 834 87 834C88.6569 834 90 832.657 90 831Z" fill="#EA4292"/>
<path d="M228 831C228 829.343 226.657 828 225 828C223.343 828 222 829.343 222 831C222 832.657 223.343 834 225 834C226.657 834 228 832.657 228 831Z" fill="#FFBF44"/>
<path d="M44 831C44 829.343 42.6569 828 41 828C39.3431 828 38 829.343 38 831C38 832.657 39.3431 834 41 834C42.6569 834 44 832.657 44 831Z" fill="#FFBF44"/>
<path d="M182 831C182 829.343 180.657 828 179 828C177.343 828 176 829.343 176 831C176 832.657 177.343 834 179 834C180.657 834 182 832.657 182 831Z" fill="#FF702A"/>
<path d="M136 831C136 829.343 134.657 828 133 828C131.343 828 130 829.343 130 831C130 832.657 131.343 834 133 834C134.657 834 136 832.657 136 831Z" fill="#6B5BF6"/>
<path d="M274 49C274 47.3431 272.657 46 271 46C269.343 46 268 47.3431 268 49C268 50.6569 269.343 52 271 52C272.657 52 274 50.6569 274 49Z" fill="#0AB493"/>
<path d="M90 49C90 47.3431 88.6569 46 87 46C85.3431 46 84 47.3431 84 49C84 50.6569 85.3431 52 87 52C88.6569 52 90 50.6569 90 49Z" fill="#0AB493"/>
<path d="M228 49C228 47.3431 226.657 46 225 46C223.343 46 222 47.3431 222 49C222 50.6569 223.343 52 225 52C226.657 52 228 50.6569 228 49Z" fill="#6B5BF6"/>
<path d="M44 49C44 47.3431 42.6569 46 41 46C39.3431 46 38 47.3431 38 49C38 50.6569 39.3431 52 41 52C42.6569 52 44 50.6569 44 49Z" fill="#6B5BF6"/>
<path d="M136 49C136 47.3431 134.657 46 133 46C131.343 46 130 47.3431 130 49C130 50.6569 131.343 52 133 52C134.657 52 136 50.6569 136 49Z" fill="#FFBF44"/>
<path d="M182 49C182 47.3431 180.657 46 179 46C177.343 46 176 47.3431 176 49C176 50.6569 177.343 52 179 52C180.657 52 182 50.6569 182 49Z" fill="#1A5AFE"/>
<path d="M274 141C274 139.343 272.657 138 271 138C269.343 138 268 139.343 268 141C268 142.657 269.343 144 271 144C272.657 144 274 142.657 274 141Z" fill="#0AB493"/>
<path d="M90 141C90 139.343 88.6569 138 87 138C85.3431 138 84 139.343 84 141C84 142.657 85.3431 144 87 144C88.6569 144 90 142.657 90 141Z" fill="#0AB493"/>
<path d="M228 141C228 139.343 226.657 138 225 138C223.343 138 222 139.343 222 141C222 142.657 223.343 144 225 144C226.657 144 228 142.657 228 141Z" fill="#6B5BF6"/>
<path d="M44 141C44 139.343 42.6569 138 41 138C39.3431 138 38 139.343 38 141C38 142.657 39.3431 144 41 144C42.6569 144 44 142.657 44 141Z" fill="#6B5BF6"/>
<path d="M136 141C136 139.343 134.657 138 133 138C131.343 138 130 139.343 130 141C130 142.657 131.343 144 133 144C134.657 144 136 142.657 136 141Z" fill="#FFBF44"/>
<path d="M182 141C182 139.343 180.657 138 179 138C177.343 138 176 139.343 176 141C176 142.657 177.343 144 179 144C180.657 144 182 142.657 182 141Z" fill="#1A5AFE"/>
<path d="M274 233C274 231.343 272.657 230 271 230C269.343 230 268 231.343 268 233C268 234.657 269.343 236 271 236C272.657 236 274 234.657 274 233Z" fill="#0AB493"/>
<path d="M90 233C90 231.343 88.6569 230 87 230C85.3431 230 84 231.343 84 233C84 234.657 85.3431 236 87 236C88.6569 236 90 234.657 90 233Z" fill="#0AB493"/>
<path d="M228 233C228 231.343 226.657 230 225 230C223.343 230 222 231.343 222 233C222 234.657 223.343 236 225 236C226.657 236 228 234.657 228 233Z" fill="#6B5BF6"/>
<path d="M44 233C44 231.343 42.6569 230 41 230C39.3431 230 38 231.343 38 233C38 234.657 39.3431 236 41 236C42.6569 236 44 234.657 44 233Z" fill="#6B5BF6"/>
<path d="M136 233C136 231.343 134.657 230 133 230C131.343 230 130 231.343 130 233C130 234.657 131.343 236 133 236C134.657 236 136 234.657 136 233Z" fill="#FFBF44"/>
<path d="M182 233C182 231.343 180.657 230 179 230C177.343 230 176 231.343 176 233C176 234.657 177.343 236 179 236C180.657 236 182 234.657 182 233Z" fill="#1A5AFE"/>
<path d="M274 325C274 323.343 272.657 322 271 322C269.343 322 268 323.343 268 325C268 326.657 269.343 328 271 328C272.657 328 274 326.657 274 325Z" fill="#0AB493"/>
<path d="M90 325C90 323.343 88.6569 322 87 322C85.3431 322 84 323.343 84 325C84 326.657 85.3431 328 87 328C88.6569 328 90 326.657 90 325Z" fill="#0AB493"/>
<path d="M228 325C228 323.343 226.657 322 225 322C223.343 322 222 323.343 222 325C222 326.657 223.343 328 225 328C226.657 328 228 326.657 228 325Z" fill="#6B5BF6"/>
<path d="M44 325C44 323.343 42.6569 322 41 322C39.3431 322 38 323.343 38 325C38 326.657 39.3431 328 41 328C42.6569 328 44 326.657 44 325Z" fill="#6B5BF6"/>
<path d="M136 325C136 323.343 134.657 322 133 322C131.343 322 130 323.343 130 325C130 326.657 131.343 328 133 328C134.657 328 136 326.657 136 325Z" fill="#FFBF44"/>
<path d="M182 325C182 323.343 180.657 322 179 322C177.343 322 176 323.343 176 325C176 326.657 177.343 328 179 328C180.657 328 182 326.657 182 325Z" fill="#1A5AFE"/>
<path d="M274 417C274 415.343 272.657 414 271 414C269.343 414 268 415.343 268 417C268 418.657 269.343 420 271 420C272.657 420 274 418.657 274 417Z" fill="#0AB493"/>
<path d="M90 417C90 415.343 88.6569 414 87 414C85.3431 414 84 415.343 84 417C84 418.657 85.3431 420 87 420C88.6569 420 90 418.657 90 417Z" fill="#0AB493"/>
<path d="M228 417C228 415.343 226.657 414 225 414C223.343 414 222 415.343 222 417C222 418.657 223.343 420 225 420C226.657 420 228 418.657 228 417Z" fill="#6B5BF6"/>
<path d="M44 417C44 415.343 42.6569 414 41 414C39.3431 414 38 415.343 38 417C38 418.657 39.3431 420 41 420C42.6569 420 44 418.657 44 417Z" fill="#6B5BF6"/>
<path d="M136 417C136 415.343 134.657 414 133 414C131.343 414 130 415.343 130 417C130 418.657 131.343 420 133 420C134.657 420 136 418.657 136 417Z" fill="#FFBF44"/>
<path d="M182 417C182 415.343 180.657 414 179 414C177.343 414 176 415.343 176 417C176 418.657 177.343 420 179 420C180.657 420 182 418.657 182 417Z" fill="#1A5AFE"/>
<path d="M274 509C274 507.343 272.657 506 271 506C269.343 506 268 507.343 268 509C268 510.657 269.343 512 271 512C272.657 512 274 510.657 274 509Z" fill="#0AB493"/>
<path d="M90 509C90 507.343 88.6569 506 87 506C85.3431 506 84 507.343 84 509C84 510.657 85.3431 512 87 512C88.6569 512 90 510.657 90 509Z" fill="#0AB493"/>
<path d="M228 509C228 507.343 226.657 506 225 506C223.343 506 222 507.343 222 509C222 510.657 223.343 512 225 512C226.657 512 228 510.657 228 509Z" fill="#6B5BF6"/>
<path d="M44 509C44 507.343 42.6569 506 41 506C39.3431 506 38 507.343 38 509C38 510.657 39.3431 512 41 512C42.6569 512 44 510.657 44 509Z" fill="#6B5BF6"/>
<path d="M136 509C136 507.343 134.657 506 133 506C131.343 506 130 507.343 130 509C130 510.657 131.343 512 133 512C134.657 512 136 510.657 136 509Z" fill="#FFBF44"/>
<path d="M182 509C182 507.343 180.657 506 179 506C177.343 506 176 507.343 176 509C176 510.657 177.343 512 179 512C180.657 512 182 510.657 182 509Z" fill="#1A5AFE"/>
<path d="M274 601C274 599.343 272.657 598 271 598C269.343 598 268 599.343 268 601C268 602.657 269.343 604 271 604C272.657 604 274 602.657 274 601Z" fill="#0AB493"/>
<path d="M90 601C90 599.343 88.6569 598 87 598C85.3431 598 84 599.343 84 601C84 602.657 85.3431 604 87 604C88.6569 604 90 602.657 90 601Z" fill="#0AB493"/>
<path d="M228 601C228 599.343 226.657 598 225 598C223.343 598 222 599.343 222 601C222 602.657 223.343 604 225 604C226.657 604 228 602.657 228 601Z" fill="#6B5BF6"/>
<path d="M44 601C44 599.343 42.6569 598 41 598C39.3431 598 38 599.343 38 601C38 602.657 39.3431 604 41 604C42.6569 604 44 602.657 44 601Z" fill="#6B5BF6"/>
<path d="M136 601C136 599.343 134.657 598 133 598C131.343 598 130 599.343 130 601C130 602.657 131.343 604 133 604C134.657 604 136 602.657 136 601Z" fill="#FFBF44"/>
<path d="M182 601C182 599.343 180.657 598 179 598C177.343 598 176 599.343 176 601C176 602.657 177.343 604 179 604C180.657 604 182 602.657 182 601Z" fill="#1A5AFE"/>
<path d="M274 693C274 691.343 272.657 690 271 690C269.343 690 268 691.343 268 693C268 694.657 269.343 696 271 696C272.657 696 274 694.657 274 693Z" fill="#0AB493"/>
<path d="M90 693C90 691.343 88.6569 690 87 690C85.3431 690 84 691.343 84 693C84 694.657 85.3431 696 87 696C88.6569 696 90 694.657 90 693Z" fill="#0AB493"/>
<path d="M228 693C228 691.343 226.657 690 225 690C223.343 690 222 691.343 222 693C222 694.657 223.343 696 225 696C226.657 696 228 694.657 228 693Z" fill="#6B5BF6"/>
<path d="M44 693C44 691.343 42.6569 690 41 690C39.3431 690 38 691.343 38 693C38 694.657 39.3431 696 41 696C42.6569 696 44 694.657 44 693Z" fill="#6B5BF6"/>
<path d="M136 693C136 691.343 134.657 690 133 690C131.343 690 130 691.343 130 693C130 694.657 131.343 696 133 696C134.657 696 136 694.657 136 693Z" fill="#FFBF44"/>
<path d="M182 693C182 691.343 180.657 690 179 690C177.343 690 176 691.343 176 693C176 694.657 177.343 696 179 696C180.657 696 182 694.657 182 693Z" fill="#1A5AFE"/>
<path d="M274 785C274 783.343 272.657 782 271 782C269.343 782 268 783.343 268 785C268 786.657 269.343 788 271 788C272.657 788 274 786.657 274 785Z" fill="#0AB493"/>
<path d="M90 785C90 783.343 88.6569 782 87 782C85.3431 782 84 783.343 84 785C84 786.657 85.3431 788 87 788C88.6569 788 90 786.657 90 785Z" fill="#0AB493"/>
<path d="M228 785C228 783.343 226.657 782 225 782C223.343 782 222 783.343 222 785C222 786.657 223.343 788 225 788C226.657 788 228 786.657 228 785Z" fill="#6B5BF6"/>
<path d="M44 785C44 783.343 42.6569 782 41 782C39.3431 782 38 783.343 38 785C38 786.657 39.3431 788 41 788C42.6569 788 44 786.657 44 785Z" fill="#6B5BF6"/>
<path d="M136 785C136 783.343 134.657 782 133 782C131.343 782 130 783.343 130 785C130 786.657 131.343 788 133 788C134.657 788 136 786.657 136 785Z" fill="#FFBF44"/>
<path d="M182 785C182 783.343 180.657 782 179 782C177.343 782 176 783.343 176 785C176 786.657 177.343 788 179 788C180.657 788 182 786.657 182 785Z" fill="#1A5AFE"/>
<path d="M274 877C274 875.343 272.657 874 271 874C269.343 874 268 875.343 268 877C268 878.657 269.343 880 271 880C272.657 880 274 878.657 274 877Z" fill="#0AB493"/>
<path d="M90 877C90 875.343 88.6569 874 87 874C85.3431 874 84 875.343 84 877C84 878.657 85.3431 880 87 880C88.6569 880 90 878.657 90 877Z" fill="#0AB493"/>
<path d="M228 877C228 875.343 226.657 874 225 874C223.343 874 222 875.343 222 877C222 878.657 223.343 880 225 880C226.657 880 228 878.657 228 877Z" fill="#6B5BF6"/>
<path d="M44 877C44 875.343 42.6569 874 41 874C39.3431 874 38 875.343 38 877C38 878.657 39.3431 880 41 880C42.6569 880 44 878.657 44 877Z" fill="#6B5BF6"/>
<path d="M136 877C136 875.343 134.657 874 133 874C131.343 874 130 875.343 130 877C130 878.657 131.343 880 133 880C134.657 880 136 878.657 136 877Z" fill="#FFBF44"/>
<path d="M182 877C182 875.343 180.657 874 179 874C177.343 874 176 875.343 176 877C176 878.657 177.343 880 179 880C180.657 880 182 878.657 182 877Z" fill="#1A5AFE"/>
</svg>
