<svg width="48" height="48" viewBox="0 0 48 48" fill="none" xmlns="http://www.w3.org/2000/svg">
<circle cx="24" cy="24" r="23" fill="#F8F8F9" stroke="#DFE0E6" stroke-width="2"/>
<path d="M19.6697 30C19.5497 30 19.4477 29.958 19.3637 29.874C19.2797 29.79 19.2377 29.688 19.2377 29.568V28.65C19.2377 28.326 19.3877 28.044 19.6877 27.804L22.5317 24.978C23.7677 24.006 24.6257 23.25 25.1057 22.71C25.5977 22.158 25.8437 21.618 25.8437 21.09C25.8437 20.526 25.6877 20.082 25.3757 19.758C25.0757 19.434 24.6197 19.272 24.0077 19.272C23.4077 19.272 22.9337 19.452 22.5857 19.812C22.2377 20.16 22.0217 20.616 21.9377 21.18C21.9017 21.324 21.8357 21.432 21.7397 21.504C21.6437 21.564 21.5357 21.594 21.4157 21.594H19.8137C19.7057 21.594 19.6157 21.558 19.5437 21.486C19.4717 21.414 19.4357 21.33 19.4357 21.234C19.4597 20.526 19.6517 19.866 20.0117 19.254C20.3717 18.63 20.8937 18.132 21.5777 17.76C22.2617 17.376 23.0657 17.184 23.9897 17.184C24.9497 17.184 25.7597 17.352 26.4197 17.688C27.0917 18.012 27.5957 18.462 27.9317 19.038C28.2677 19.614 28.4357 20.268 28.4357 21C28.4357 21.804 28.2077 22.53 27.7517 23.178C27.3077 23.826 26.6237 24.522 25.6997 25.266L23.1437 27.858H28.2737C28.4057 27.858 28.5077 27.9 28.5797 27.984C28.6637 28.056 28.7057 28.158 28.7057 28.29V29.568C28.7057 29.688 28.6637 29.79 28.5797 29.874C28.5077 29.958 28.4057 30 28.2737 30H19.6697Z" fill="#475166"/>
</svg>
