<svg width="48" height="48" viewBox="0 0 48 48" fill="none" xmlns="http://www.w3.org/2000/svg">
<circle cx="24" cy="24" r="23" fill="#F8F8F9" stroke="#DFE0E6" stroke-width="2"/>
<path d="M23.9291 30.18C22.8731 30.18 21.9731 30.012 21.2291 29.676C20.4971 29.34 19.9451 28.92 19.5731 28.416C19.2131 27.9 19.0211 27.372 18.9971 26.832C18.9971 26.724 19.0331 26.64 19.1051 26.58C19.1891 26.508 19.2851 26.472 19.3931 26.472H21.0131C21.2771 26.472 21.4511 26.592 21.5351 26.832C21.7991 27.696 22.6031 28.128 23.9471 28.128C24.6791 28.128 25.2551 27.96 25.6751 27.624C26.0951 27.276 26.3051 26.784 26.3051 26.148C26.3051 24.948 25.5551 24.348 24.0551 24.348H22.2011C22.0691 24.348 21.9611 24.306 21.8771 24.222C21.7931 24.138 21.7511 24.036 21.7511 23.916V23.16C21.7511 22.968 21.8351 22.788 22.0031 22.62L25.2251 19.47H20.0771C19.9571 19.47 19.8551 19.428 19.7711 19.344C19.6871 19.26 19.6451 19.158 19.6451 19.038V17.85C19.6451 17.718 19.6811 17.61 19.7531 17.526C19.8371 17.442 19.9451 17.4 20.0771 17.4H27.7991C27.9311 17.4 28.0391 17.442 28.1231 17.526C28.2071 17.61 28.2491 17.718 28.2491 17.85V18.93C28.2491 19.11 28.1711 19.278 28.0151 19.434L24.9011 22.638L25.1171 22.656C26.2691 22.752 27.1811 23.1 27.8531 23.7C28.5371 24.3 28.8791 25.158 28.8791 26.274C28.8791 27.066 28.6631 27.756 28.2311 28.344C27.8111 28.932 27.2231 29.388 26.4671 29.712C25.7231 30.024 24.8771 30.18 23.9291 30.18Z" fill="#475166"/>
</svg>
