<svg width="48" height="48" viewBox="0 0 48 48" fill="none" xmlns="http://www.w3.org/2000/svg">
<circle cx="24" cy="24" r="23" fill="#F8F8F9" stroke="#DFE0E6" stroke-width="2"/>
<path d="M25.32 30C25.2 30 25.098 29.958 25.014 29.874C24.93 29.79 24.888 29.688 24.888 29.568V20.244L22.152 22.35C22.08 22.41 21.996 22.44 21.9 22.44C21.756 22.44 21.636 22.374 21.54 22.242L20.784 21.27C20.724 21.174 20.694 21.084 20.694 21C20.694 20.856 20.76 20.736 20.892 20.64L24.924 17.526C25.032 17.442 25.182 17.4 25.374 17.4H26.958C27.09 17.4 27.192 17.442 27.264 17.526C27.348 17.598 27.39 17.7 27.39 17.832V29.568C27.39 29.688 27.348 29.79 27.264 29.874C27.192 29.958 27.09 30 26.958 30H25.32Z" fill="#475166"/>
</svg>
